<svg width="31" height="31" viewBox="0 0 31 31" fill="none" xmlns="http://www.w3.org/2000/svg">
<path fill-rule="evenodd" clip-rule="evenodd" d="M18.7097 3.4848C18.7097 3.40192 18.6768 3.32244 18.6182 3.26383C18.5596 3.20523 18.4801 3.1723 18.3972 3.1723H9.64722C8.73554 3.1723 7.86119 3.53447 7.21654 4.17912C6.57188 4.82378 6.20972 5.69812 6.20972 6.6098V24.1098C6.20972 25.0215 6.57188 25.8958 7.21654 26.5405C7.86119 27.1851 8.73554 27.5473 9.64722 27.5473H22.1472C23.0589 27.5473 23.9332 27.1851 24.5779 26.5405C25.2226 25.8958 25.5847 25.0215 25.5847 24.1098V11.7936C25.5847 11.7107 25.5518 11.6312 25.4932 11.5726C25.4346 11.514 25.3551 11.4811 25.2722 11.4811H19.6472C19.3986 11.4811 19.1601 11.3823 18.9843 11.2065C18.8085 11.0306 18.7097 10.7922 18.7097 10.5436V3.4848ZM19.6472 15.6723C19.8959 15.6723 20.1343 15.7711 20.3101 15.9469C20.4859 16.1227 20.5847 16.3612 20.5847 16.6098C20.5847 16.8584 20.4859 17.0969 20.3101 17.2727C20.1343 17.4485 19.8959 17.5473 19.6472 17.5473H12.1472C11.8986 17.5473 11.6601 17.4485 11.4843 17.2727C11.3085 17.0969 11.2097 16.8584 11.2097 16.6098C11.2097 16.3612 11.3085 16.1227 11.4843 15.9469C11.6601 15.7711 11.8986 15.6723 12.1472 15.6723H19.6472ZM19.6472 20.6723C19.8959 20.6723 20.1343 20.7711 20.3101 20.9469C20.4859 21.1227 20.5847 21.3612 20.5847 21.6098C20.5847 21.8584 20.4859 22.0969 20.3101 22.2727C20.1343 22.4485 19.8959 22.5473 19.6472 22.5473H12.1472C11.8986 22.5473 11.6601 22.4485 11.4843 22.2727C11.3085 22.0969 11.2097 21.8584 11.2097 21.6098C11.2097 21.3612 11.3085 21.1227 11.4843 20.9469C11.6601 20.7711 11.8986 20.6723 12.1472 20.6723H19.6472Z" fill="#1F8505"/>
<path d="M20.5847 3.88979C20.5847 3.65979 20.826 3.51354 21.0047 3.65729C21.156 3.77979 21.2922 3.92229 21.4085 4.08479L25.1747 9.33104C25.2597 9.45104 25.1672 9.60604 25.0197 9.60604H20.8972C20.8143 9.60604 20.7349 9.57312 20.6762 9.51451C20.6176 9.45591 20.5847 9.37642 20.5847 9.29354V3.88979Z" fill="#1F8505"/>
</svg>
