<svg width="25" height="31" viewBox="0 0 25 31" fill="none" xmlns="http://www.w3.org/2000/svg">
<g id="Feedback logo">
<path id="Vector" d="M15.3775 16C15.5275 16.0875 15.6975 16.125 15.8575 16.125C16.1875 16.125 16.4975 15.9625 16.7375 15.675L18.9175 13H19.8575C21.3775 13 22.6075 11.4625 22.6075 9.5625V6.4375C22.6075 4.5375 21.3775 3 19.8575 3H15.3575C13.8375 3 12.6075 4.5375 12.6075 6.4375V9.5625C12.6075 11.1375 13.4575 12.4625 14.6075 12.875V14.5625C14.6075 15.1875 14.9175 15.75 15.3775 16ZM8.6075 17.375C6.6775 17.375 5.1075 15.4125 5.1075 13C5.1075 10.5875 6.6775 8.625 8.6075 8.625C10.5375 8.625 12.1075 10.5875 12.1075 13C12.1075 15.4125 10.5375 17.375 8.6075 17.375ZM8.6075 28C6.5475 28 4.9675 27.3 3.9075 25.9125C2.5715 24.1575 2.6045 21.945 2.6075 21.7162V21.7C2.6075 20.3625 3.5075 19.25 4.6075 19.25H12.6075C13.7075 19.25 14.6075 20.375 14.6075 21.75L14.6085 21.7575C14.6115 21.9163 14.6535 24.145 13.3085 25.9125C12.2475 27.3 10.6675 28 8.6075 28Z" fill="white"/>
</g>
</svg>
