<svg width="31" height="31" viewBox="0 0 31 31" fill="none" xmlns="http://www.w3.org/2000/svg">
<path d="M15.6075 26.75C12.7325 26.75 10.2275 25.7971 8.09248 23.8912C5.95748 21.9854 4.73332 19.605 4.41998 16.75H6.98248C7.27415 18.9167 8.2379 20.7083 9.87373 22.125C11.5096 23.5417 13.4208 24.25 15.6075 24.25C18.045 24.25 20.1129 23.4012 21.8112 21.7037C23.5096 20.0062 24.3583 17.9383 24.3575 15.5C24.3566 13.0617 23.5079 10.9942 21.8112 9.2975C20.1146 7.60083 18.0466 6.75167 15.6075 6.75C14.17 6.75 12.8262 7.08333 11.5762 7.75C10.3262 8.41667 9.27415 9.33333 8.41998 10.5H11.8575V13H4.35748V5.5H6.85748V8.4375C7.91998 7.10417 9.21707 6.07292 10.7487 5.34375C12.2804 4.61458 13.9 4.25 15.6075 4.25C17.17 4.25 18.6337 4.54708 19.9987 5.14125C21.3637 5.73542 22.5512 6.53708 23.5612 7.54625C24.5712 8.55542 25.3733 9.74292 25.9675 11.1088C26.5616 12.4746 26.8583 13.9383 26.8575 15.5C26.8566 17.0617 26.56 18.5254 25.9675 19.8912C25.375 21.2571 24.5729 22.4446 23.5612 23.4538C22.5496 24.4629 21.3621 25.265 19.9987 25.86C18.6354 26.455 17.1716 26.7517 15.6075 26.75ZM19.1075 20.75L14.3575 16V9.25H16.8575V15L20.8575 19L19.1075 20.75Z" fill="#1F8505"/>
</svg>
