<svg width="341" height="75" viewBox="0 0 341 75" fill="none" xmlns="http://www.w3.org/2000/svg">
<path d="M47.7785 26.1148H60.6804V61.1941C60.6804 62.1565 60.298 63.0795 59.6175 63.7601C58.9369 64.4406 58.0139 64.823 57.0515 64.823H43.7455V59.9844H55.8419V30.9533H47.7785V26.1148Z" fill="#1F8505"/>
<path d="M26.6119 12.0963V36.2889H21.7734V26.6119C19.2068 26.6119 16.7455 25.5923 14.9307 23.7775C13.1159 21.9627 12.0963 19.5013 12.0963 16.9348C12.0963 14.3683 13.1159 11.9069 14.9307 10.0921C16.7455 8.27732 19.2068 7.25778 21.7734 7.25778H41.1275V12.0963H36.2889V36.2889H31.4504V12.0963H26.6119ZM21.7734 12.0963C20.4901 12.0963 19.2594 12.6061 18.352 13.5135C17.4446 14.4209 16.9348 15.6516 16.9348 16.9348C16.9348 18.2181 17.4446 19.4488 18.352 20.3562C19.2594 21.2636 20.4901 21.7734 21.7734 21.7734V12.0963ZM41.1275 41.1274V35.0793L50.8045 43.5467L41.1275 52.0141V45.966H12.0963V41.1274H41.1275Z" fill="#1F8505"/>
<path d="M83.7933 46V27.8182H87.087V43.239H95.0948V46H83.7933ZM101.735 46.2752C100.871 46.2752 100.093 46.1213 99.4006 45.8136C98.714 45.4999 98.1695 45.0382 97.767 44.4286C97.3705 43.819 97.1722 43.0674 97.1722 42.1737C97.1722 41.4042 97.3143 40.768 97.5984 40.2649C97.8825 39.7618 98.2701 39.3594 98.7614 39.0575C99.2526 38.7557 99.806 38.5278 100.422 38.3739C101.043 38.2141 101.685 38.0987 102.348 38.0277C103.147 37.9448 103.795 37.8709 104.292 37.8058C104.789 37.7347 105.15 37.6282 105.375 37.4862C105.606 37.3382 105.722 37.1103 105.722 36.8026V36.7493C105.722 36.0805 105.523 35.5626 105.127 35.1957C104.73 34.8287 104.159 34.6452 103.413 34.6452C102.626 34.6452 102.002 34.8169 101.54 35.1602C101.084 35.5034 100.777 35.9089 100.617 36.3764L97.6161 35.9503C97.8529 35.1217 98.2435 34.4292 98.788 33.8729C99.3325 33.3106 99.9983 32.8904 100.786 32.6122C101.573 32.3281 102.443 32.1861 103.396 32.1861C104.053 32.1861 104.707 32.263 105.358 32.4169C106.009 32.5708 106.603 32.8253 107.142 33.1804C107.681 33.5296 108.113 34.006 108.438 34.6097C108.77 35.2134 108.935 35.968 108.935 36.8736V46H105.846V44.1268H105.739C105.544 44.5056 105.269 44.8607 104.914 45.1921C104.565 45.5176 104.124 45.781 103.591 45.9822C103.064 46.1776 102.446 46.2752 101.735 46.2752ZM102.57 43.9137C103.215 43.9137 103.774 43.7865 104.248 43.532C104.721 43.2715 105.085 42.9283 105.34 42.5021C105.6 42.076 105.73 41.6114 105.73 41.1083V39.5014C105.63 39.5843 105.458 39.6612 105.216 39.7322C104.979 39.8033 104.712 39.8654 104.417 39.9187C104.121 39.9719 103.828 40.0193 103.538 40.0607C103.248 40.1022 102.996 40.1377 102.783 40.1673C102.304 40.2324 101.875 40.3389 101.496 40.4869C101.117 40.6348 100.818 40.842 100.599 41.1083C100.38 41.3687 100.271 41.7061 100.271 42.1204C100.271 42.7122 100.487 43.1591 100.919 43.4609C101.351 43.7628 101.901 43.9137 102.57 43.9137ZM115.381 38.0099V46H112.167V32.3636H115.239V34.6808H115.398C115.712 33.9173 116.212 33.3106 116.899 32.8608C117.591 32.411 118.446 32.1861 119.464 32.1861C120.406 32.1861 121.225 32.3873 121.924 32.7898C122.628 33.1922 123.172 33.7752 123.557 34.5387C123.948 35.3022 124.14 36.2285 124.134 37.3175V46H120.92V37.8146C120.92 36.9032 120.684 36.19 120.21 35.6751C119.743 35.1602 119.095 34.9027 118.266 34.9027C117.704 34.9027 117.204 35.027 116.766 35.2756C116.334 35.5182 115.993 35.8704 115.745 36.332C115.502 36.7937 115.381 37.353 115.381 38.0099ZM133.332 51.3977C132.178 51.3977 131.186 51.2409 130.358 50.9272C129.529 50.6194 128.863 50.2051 128.36 49.6843C127.857 49.1635 127.508 48.5864 127.312 47.9531L130.207 47.2518C130.337 47.5181 130.526 47.7815 130.775 48.0419C131.023 48.3082 131.358 48.5272 131.778 48.6989C132.204 48.8764 132.74 48.9652 133.385 48.9652C134.296 48.9652 135.051 48.7433 135.649 48.2994C136.247 47.8614 136.545 47.1393 136.545 46.1332V43.5497H136.386C136.22 43.8812 135.977 44.2215 135.658 44.5707C135.344 44.9199 134.927 45.2128 134.406 45.4496C133.891 45.6863 133.243 45.8047 132.462 45.8047C131.414 45.8047 130.464 45.5591 129.612 45.0678C128.766 44.5707 128.091 43.8308 127.588 42.8484C127.091 41.86 126.842 40.623 126.842 39.1374C126.842 37.64 127.091 36.3764 127.588 35.3466C128.091 34.3108 128.768 33.5266 129.621 32.994C130.473 32.4554 131.423 32.1861 132.471 32.1861C133.27 32.1861 133.926 32.3222 134.441 32.5945C134.962 32.8608 135.377 33.1834 135.684 33.5621C135.992 33.935 136.226 34.2872 136.386 34.6186H136.563V32.3636H139.733V46.2219C139.733 47.3879 139.454 48.3526 138.898 49.1161C138.342 49.8796 137.581 50.4508 136.616 50.8295C135.652 51.2083 134.557 51.3977 133.332 51.3977ZM133.358 43.2834C134.039 43.2834 134.619 43.1177 135.098 42.7862C135.578 42.4548 135.942 41.9783 136.19 41.3569C136.439 40.7354 136.563 39.9897 136.563 39.1197C136.563 38.2615 136.439 37.5098 136.19 36.8647C135.948 36.2196 135.587 35.7195 135.107 35.3643C134.634 35.0033 134.051 34.8228 133.358 34.8228C132.642 34.8228 132.044 35.0092 131.565 35.3821C131.086 35.755 130.725 36.2669 130.482 36.918C130.239 37.5631 130.118 38.297 130.118 39.1197C130.118 39.9542 130.239 40.6851 130.482 41.3125C130.73 41.9339 131.094 42.4193 131.574 42.7685C132.059 43.1117 132.654 43.2834 133.358 43.2834ZM151.718 40.2649V32.3636H154.931V46H151.815V43.5763H151.673C151.366 44.3398 150.859 44.9643 150.155 45.4496C149.457 45.9349 148.596 46.1776 147.572 46.1776C146.678 46.1776 145.888 45.9793 145.201 45.5827C144.521 45.1803 143.988 44.5973 143.603 43.8338C143.219 43.0644 143.026 42.1352 143.026 41.0462V32.3636H146.24V40.549C146.24 41.4131 146.477 42.0997 146.95 42.6087C147.424 43.1177 148.045 43.3722 148.815 43.3722C149.288 43.3722 149.747 43.2567 150.191 43.0259C150.635 42.7951 150.999 42.4518 151.283 41.9961C151.573 41.5344 151.718 40.9574 151.718 40.2649ZM162.16 46.2752C161.296 46.2752 160.518 46.1213 159.825 45.8136C159.139 45.4999 158.594 45.0382 158.192 44.4286C157.795 43.819 157.597 43.0674 157.597 42.1737C157.597 41.4042 157.739 40.768 158.023 40.2649C158.307 39.7618 158.695 39.3594 159.186 39.0575C159.677 38.7557 160.231 38.5278 160.846 38.3739C161.468 38.2141 162.11 38.0987 162.773 38.0277C163.572 37.9448 164.22 37.8709 164.717 37.8058C165.214 37.7347 165.575 37.6282 165.8 37.4862C166.031 37.3382 166.146 37.1103 166.146 36.8026V36.7493C166.146 36.0805 165.948 35.5626 165.552 35.1957C165.155 34.8287 164.584 34.6452 163.838 34.6452C163.051 34.6452 162.427 34.8169 161.965 35.1602C161.509 35.5034 161.201 35.9089 161.042 36.3764L158.041 35.9503C158.278 35.1217 158.668 34.4292 159.213 33.8729C159.757 33.3106 160.423 32.8904 161.21 32.6122C161.997 32.3281 162.868 32.1861 163.82 32.1861C164.477 32.1861 165.131 32.263 165.782 32.4169C166.433 32.5708 167.028 32.8253 167.567 33.1804C168.105 33.5296 168.537 34.006 168.863 34.6097C169.194 35.2134 169.36 35.968 169.36 36.8736V46H166.271V44.1268H166.164C165.969 44.5056 165.694 44.8607 165.339 45.1921C164.989 45.5176 164.548 45.781 164.016 45.9822C163.489 46.1776 162.87 46.2752 162.16 46.2752ZM162.995 43.9137C163.64 43.9137 164.199 43.7865 164.673 43.532C165.146 43.2715 165.51 42.9283 165.765 42.5021C166.025 42.076 166.155 41.6114 166.155 41.1083V39.5014C166.055 39.5843 165.883 39.6612 165.64 39.7322C165.404 39.8033 165.137 39.8654 164.841 39.9187C164.545 39.9719 164.252 40.0193 163.962 40.0607C163.672 40.1022 163.421 40.1377 163.208 40.1673C162.728 40.2324 162.299 40.3389 161.921 40.4869C161.542 40.6348 161.243 40.842 161.024 41.1083C160.805 41.3687 160.695 41.7061 160.695 42.1204C160.695 42.7122 160.911 43.1591 161.343 43.4609C161.776 43.7628 162.326 43.9137 162.995 43.9137ZM178.522 51.3977C177.368 51.3977 176.377 51.2409 175.548 50.9272C174.719 50.6194 174.054 50.2051 173.551 49.6843C173.047 49.1635 172.698 48.5864 172.503 47.9531L175.397 47.2518C175.527 47.5181 175.717 47.7815 175.965 48.0419C176.214 48.3082 176.548 48.5272 176.968 48.6989C177.395 48.8764 177.93 48.9652 178.575 48.9652C179.487 48.9652 180.241 48.7433 180.839 48.2994C181.437 47.8614 181.736 47.1393 181.736 46.1332V43.5497H181.576C181.41 43.8812 181.168 44.2215 180.848 44.5707C180.534 44.9199 180.117 45.2128 179.596 45.4496C179.081 45.6863 178.433 45.8047 177.652 45.8047C176.604 45.8047 175.655 45.5591 174.802 45.0678C173.956 44.5707 173.281 43.8308 172.778 42.8484C172.281 41.86 172.032 40.623 172.032 39.1374C172.032 37.64 172.281 36.3764 172.778 35.3466C173.281 34.3108 173.959 33.5266 174.811 32.994C175.663 32.4554 176.613 32.1861 177.661 32.1861C178.46 32.1861 179.117 32.3222 179.632 32.5945C180.153 32.8608 180.567 33.1834 180.875 33.5621C181.182 33.935 181.416 34.2872 181.576 34.6186H181.754V32.3636H184.923V46.2219C184.923 47.3879 184.645 48.3526 184.089 49.1161C183.532 49.8796 182.772 50.4508 181.807 50.8295C180.842 51.2083 179.747 51.3977 178.522 51.3977ZM178.549 43.2834C179.229 43.2834 179.809 43.1177 180.289 42.7862C180.768 42.4548 181.132 41.9783 181.381 41.3569C181.629 40.7354 181.754 39.9897 181.754 39.1197C181.754 38.2615 181.629 37.5098 181.381 36.8647C181.138 36.2196 180.777 35.7195 180.298 35.3643C179.824 35.0033 179.241 34.8228 178.549 34.8228C177.833 34.8228 177.235 35.0092 176.755 35.3821C176.276 35.755 175.915 36.2669 175.672 36.918C175.43 37.5631 175.308 38.297 175.308 39.1197C175.308 39.9542 175.43 40.6851 175.672 41.3125C175.921 41.9339 176.285 42.4193 176.764 42.7685C177.25 43.1117 177.844 43.2834 178.549 43.2834ZM194.254 46.2663C192.886 46.2663 191.706 45.9822 190.711 45.4141C189.723 44.84 188.962 44.0291 188.43 42.9815C187.897 41.928 187.631 40.6881 187.631 39.2617C187.631 37.859 187.897 36.628 188.43 35.5685C188.968 34.5032 189.72 33.6746 190.685 33.0827C191.649 32.485 192.783 32.1861 194.085 32.1861C194.925 32.1861 195.718 32.3222 196.464 32.5945C197.216 32.8608 197.879 33.2751 198.453 33.8374C199.033 34.3996 199.489 35.1158 199.82 35.9858C200.151 36.8499 200.317 37.8797 200.317 39.0753V40.0607H189.14V37.8945H197.237C197.231 37.279 197.098 36.7315 196.837 36.2521C196.577 35.7668 196.213 35.3851 195.745 35.1069C195.283 34.8287 194.745 34.6896 194.129 34.6896C193.472 34.6896 192.895 34.8494 192.398 35.169C191.901 35.4827 191.513 35.897 191.235 36.4119C190.963 36.9209 190.824 37.4802 190.818 38.0898V39.9808C190.818 40.7739 190.963 41.4545 191.253 42.0227C191.543 42.585 191.948 43.017 192.469 43.3189C192.99 43.6148 193.6 43.7628 194.298 43.7628C194.766 43.7628 195.189 43.6977 195.568 43.5675C195.946 43.4313 196.275 43.2331 196.553 42.9727C196.831 42.7122 197.041 42.3897 197.183 42.005L200.184 42.3423C199.995 43.1354 199.634 43.8279 199.101 44.4197C198.574 45.0057 197.899 45.4614 197.077 45.7869C196.254 46.1065 195.313 46.2663 194.254 46.2663Z" fill="black"/>
<path d="M210.351 27.8182H213.618V40.6023C213.613 41.7741 213.364 42.7833 212.873 43.6296C212.381 44.4701 211.695 45.1181 210.813 45.5739C209.937 46.0237 208.916 46.2486 207.75 46.2486C206.685 46.2486 205.726 46.0592 204.874 45.6804C204.027 45.2957 203.356 44.7275 202.858 43.9759C202.361 43.2242 202.113 42.2891 202.113 41.1705H205.389C205.395 41.6617 205.501 42.0849 205.708 42.44C205.921 42.7951 206.214 43.0674 206.587 43.2567C206.96 43.4461 207.389 43.5408 207.874 43.5408C208.401 43.5408 208.848 43.4313 209.215 43.2124C209.582 42.9875 209.86 42.656 210.05 42.218C210.245 41.7801 210.345 41.2415 210.351 40.6023V27.8182ZM225.741 40.2649V32.3636H228.955V46H225.839V43.5763H225.697C225.389 44.3398 224.883 44.9643 224.179 45.4496C223.48 45.9349 222.619 46.1776 221.595 46.1776C220.701 46.1776 219.911 45.9793 219.225 45.5827C218.544 45.1803 218.011 44.5973 217.627 43.8338C217.242 43.0644 217.05 42.1352 217.05 41.0462V32.3636H220.263V40.549C220.263 41.4131 220.5 42.0997 220.974 42.6087C221.447 43.1177 222.069 43.3722 222.838 43.3722C223.312 43.3722 223.77 43.2567 224.214 43.0259C224.658 42.7951 225.022 42.4518 225.306 41.9961C225.596 41.5344 225.741 40.9574 225.741 40.2649ZM238.19 51.3977C237.036 51.3977 236.045 51.2409 235.216 50.9272C234.387 50.6194 233.722 50.2051 233.218 49.6843C232.715 49.1635 232.366 48.5864 232.171 47.9531L235.065 47.2518C235.195 47.5181 235.385 47.7815 235.633 48.0419C235.882 48.3082 236.216 48.5272 236.636 48.6989C237.063 48.8764 237.598 48.9652 238.243 48.9652C239.155 48.9652 239.909 48.7433 240.507 48.2994C241.105 47.8614 241.404 47.1393 241.404 46.1332V43.5497H241.244C241.078 43.8812 240.836 44.2215 240.516 44.5707C240.202 44.9199 239.785 45.2128 239.264 45.4496C238.749 45.6863 238.101 45.8047 237.32 45.8047C236.272 45.8047 235.323 45.5591 234.47 45.0678C233.624 44.5707 232.949 43.8308 232.446 42.8484C231.949 41.86 231.7 40.623 231.7 39.1374C231.7 37.64 231.949 36.3764 232.446 35.3466C232.949 34.3108 233.627 33.5266 234.479 32.994C235.331 32.4554 236.281 32.1861 237.329 32.1861C238.128 32.1861 238.785 32.3222 239.3 32.5945C239.821 32.8608 240.235 33.1834 240.543 33.5621C240.85 33.935 241.084 34.2872 241.244 34.6186H241.422V32.3636H244.591V46.2219C244.591 47.3879 244.313 48.3526 243.756 49.1161C243.2 49.8796 242.44 50.4508 241.475 50.8295C240.51 51.2083 239.415 51.3977 238.19 51.3977ZM238.217 43.2834C238.897 43.2834 239.477 43.1177 239.957 42.7862C240.436 42.4548 240.8 41.9783 241.049 41.3569C241.297 40.7354 241.422 39.9897 241.422 39.1197C241.422 38.2615 241.297 37.5098 241.049 36.8647C240.806 36.2196 240.445 35.7195 239.966 35.3643C239.492 35.0033 238.909 34.8228 238.217 34.8228C237.501 34.8228 236.903 35.0092 236.423 35.3821C235.944 35.755 235.583 36.2669 235.34 36.918C235.098 37.5631 234.976 38.297 234.976 39.1197C234.976 39.9542 235.098 40.6851 235.34 41.3125C235.589 41.9339 235.953 42.4193 236.432 42.7685C236.918 43.1117 237.512 43.2834 238.217 43.2834ZM253.815 51.3977C252.661 51.3977 251.67 51.2409 250.841 50.9272C250.012 50.6194 249.347 50.2051 248.843 49.6843C248.34 49.1635 247.991 48.5864 247.796 47.9531L250.69 47.2518C250.82 47.5181 251.01 47.7815 251.258 48.0419C251.507 48.3082 251.841 48.5272 252.261 48.6989C252.688 48.8764 253.223 48.9652 253.868 48.9652C254.78 48.9652 255.534 48.7433 256.132 48.2994C256.73 47.8614 257.029 47.1393 257.029 46.1332V43.5497H256.869C256.703 43.8812 256.461 44.2215 256.141 44.5707C255.827 44.9199 255.41 45.2128 254.889 45.4496C254.374 45.6863 253.726 45.8047 252.945 45.8047C251.897 45.8047 250.948 45.5591 250.095 45.0678C249.249 44.5707 248.574 43.8308 248.071 42.8484C247.574 41.86 247.325 40.623 247.325 39.1374C247.325 37.64 247.574 36.3764 248.071 35.3466C248.574 34.3108 249.252 33.5266 250.104 32.994C250.956 32.4554 251.906 32.1861 252.954 32.1861C253.753 32.1861 254.41 32.3222 254.925 32.5945C255.446 32.8608 255.86 33.1834 256.168 33.5621C256.475 33.935 256.709 34.2872 256.869 34.6186H257.047V32.3636H260.216V46.2219C260.216 47.3879 259.938 48.3526 259.381 49.1161C258.825 49.8796 258.065 50.4508 257.1 50.8295C256.135 51.2083 255.04 51.3977 253.815 51.3977ZM253.842 43.2834C254.522 43.2834 255.102 43.1177 255.582 42.7862C256.061 42.4548 256.425 41.9783 256.674 41.3569C256.922 40.7354 257.047 39.9897 257.047 39.1197C257.047 38.2615 256.922 37.5098 256.674 36.8647C256.431 36.2196 256.07 35.7195 255.591 35.3643C255.117 35.0033 254.534 34.8228 253.842 34.8228C253.126 34.8228 252.528 35.0092 252.048 35.3821C251.569 35.755 251.208 36.2669 250.965 36.918C250.723 37.5631 250.601 38.297 250.601 39.1197C250.601 39.9542 250.723 40.6851 250.965 41.3125C251.214 41.9339 251.578 42.4193 252.057 42.7685C252.543 43.1117 253.137 43.2834 253.842 43.2834ZM269.547 46.2663C268.179 46.2663 266.999 45.9822 266.004 45.4141C265.016 44.84 264.255 44.0291 263.723 42.9815C263.19 41.928 262.924 40.6881 262.924 39.2617C262.924 37.859 263.19 36.628 263.723 35.5685C264.261 34.5032 265.013 33.6746 265.978 33.0827C266.942 32.485 268.076 32.1861 269.378 32.1861C270.218 32.1861 271.011 32.3222 271.757 32.5945C272.509 32.8608 273.172 33.2751 273.746 33.8374C274.326 34.3996 274.782 35.1158 275.113 35.9858C275.444 36.8499 275.61 37.8797 275.61 39.0753V40.0607H264.433V37.8945H272.53C272.524 37.279 272.39 36.7315 272.13 36.2521C271.87 35.7668 271.506 35.3851 271.038 35.1069C270.576 34.8287 270.038 34.6896 269.422 34.6896C268.765 34.6896 268.188 34.8494 267.691 35.169C267.194 35.4827 266.806 35.897 266.528 36.4119C266.256 36.9209 266.117 37.4802 266.111 38.0898V39.9808C266.111 40.7739 266.256 41.4545 266.546 42.0227C266.836 42.585 267.241 43.017 267.762 43.3189C268.283 43.6148 268.893 43.7628 269.591 43.7628C270.059 43.7628 270.482 43.6977 270.861 43.5675C271.239 43.4313 271.568 43.2331 271.846 42.9727C272.124 42.7122 272.334 42.3897 272.476 42.005L275.477 42.3423C275.288 43.1354 274.927 43.8279 274.394 44.4197C273.867 45.0057 273.192 45.4614 272.37 45.7869C271.547 46.1065 270.606 46.2663 269.547 46.2663ZM278.329 46V32.3636H281.445V34.6364H281.587C281.836 33.8492 282.262 33.2425 282.866 32.8164C283.475 32.3844 284.171 32.1683 284.952 32.1683C285.129 32.1683 285.328 32.1772 285.547 32.195C285.772 32.2068 285.958 32.2275 286.106 32.2571V35.2134C285.97 35.1661 285.754 35.1246 285.458 35.0891C285.168 35.0477 284.887 35.027 284.615 35.027C284.029 35.027 283.502 35.1542 283.034 35.4087C282.573 35.6573 282.209 36.0036 281.942 36.4474C281.676 36.8913 281.543 37.4033 281.543 37.9833V46H278.329ZM291.455 38.0099V46H288.241V32.3636H291.313V34.6808H291.473C291.786 33.9173 292.286 33.3106 292.973 32.8608C293.665 32.411 294.521 32.1861 295.539 32.1861C296.48 32.1861 297.299 32.3873 297.998 32.7898C298.702 33.1922 299.247 33.7752 299.631 34.5387C300.022 35.3022 300.214 36.2285 300.208 37.3175V46H296.995V37.8146C296.995 36.9032 296.758 36.19 296.284 35.6751C295.817 35.1602 295.169 34.9027 294.34 34.9027C293.778 34.9027 293.278 35.027 292.84 35.2756C292.408 35.5182 292.067 35.8704 291.819 36.332C291.576 36.7937 291.455 37.353 291.455 38.0099ZM307.4 46.2752C306.535 46.2752 305.757 46.1213 305.065 45.8136C304.378 45.4999 303.834 45.0382 303.431 44.4286C303.035 43.819 302.836 43.0674 302.836 42.1737C302.836 41.4042 302.978 40.768 303.262 40.2649C303.547 39.7618 303.934 39.3594 304.425 39.0575C304.917 38.7557 305.47 38.5278 306.086 38.3739C306.707 38.2141 307.349 38.0987 308.012 38.0277C308.811 37.9448 309.459 37.8709 309.956 37.8058C310.453 37.7347 310.815 37.6282 311.039 37.4862C311.27 37.3382 311.386 37.1103 311.386 36.8026V36.7493C311.386 36.0805 311.187 35.5626 310.791 35.1957C310.394 34.8287 309.823 34.6452 309.077 34.6452C308.29 34.6452 307.666 34.8169 307.204 35.1602C306.748 35.5034 306.441 35.9089 306.281 36.3764L303.28 35.9503C303.517 35.1217 303.908 34.4292 304.452 33.8729C304.997 33.3106 305.662 32.8904 306.45 32.6122C307.237 32.3281 308.107 32.1861 309.06 32.1861C309.717 32.1861 310.371 32.263 311.022 32.4169C311.673 32.5708 312.268 32.8253 312.806 33.1804C313.345 33.5296 313.777 34.006 314.102 34.6097C314.434 35.2134 314.599 35.968 314.599 36.8736V46H311.51V44.1268H311.403C311.208 44.5056 310.933 44.8607 310.578 45.1921C310.229 45.5176 309.788 45.781 309.255 45.9822C308.728 46.1776 308.11 46.2752 307.4 46.2752ZM308.234 43.9137C308.879 43.9137 309.438 43.7865 309.912 43.532C310.385 43.2715 310.749 42.9283 311.004 42.5021C311.264 42.076 311.395 41.6114 311.395 41.1083V39.5014C311.294 39.5843 311.122 39.6612 310.88 39.7322C310.643 39.8033 310.377 39.8654 310.081 39.9187C309.785 39.9719 309.492 40.0193 309.202 40.0607C308.912 40.1022 308.66 40.1377 308.447 40.1673C307.968 40.2324 307.539 40.3389 307.16 40.4869C306.781 40.6348 306.482 40.842 306.263 41.1083C306.044 41.3687 305.935 41.7061 305.935 42.1204C305.935 42.7122 306.151 43.1591 306.583 43.4609C307.015 43.7628 307.565 43.9137 308.234 43.9137ZM326.522 40.2649V32.3636H329.736V46H326.62V43.5763H326.478C326.17 44.3398 325.664 44.9643 324.96 45.4496C324.261 45.9349 323.4 46.1776 322.376 46.1776C321.483 46.1776 320.693 45.9793 320.006 45.5827C319.325 45.1803 318.793 44.5973 318.408 43.8338C318.023 43.0644 317.831 42.1352 317.831 41.0462V32.3636H321.045V40.549C321.045 41.4131 321.281 42.0997 321.755 42.6087C322.228 43.1177 322.85 43.3722 323.619 43.3722C324.093 43.3722 324.551 43.2567 324.995 43.0259C325.439 42.7951 325.803 42.4518 326.087 41.9961C326.377 41.5344 326.522 40.9574 326.522 40.2649ZM339.85 32.3636V34.8494H332.011V32.3636H339.85ZM333.946 29.0966H337.16V41.8984C337.16 42.3305 337.225 42.6619 337.356 42.8928C337.492 43.1177 337.669 43.2715 337.888 43.3544C338.107 43.4373 338.35 43.4787 338.616 43.4787C338.817 43.4787 339.001 43.4639 339.167 43.4343C339.338 43.4047 339.468 43.3781 339.557 43.3544L340.099 45.8668C339.927 45.926 339.682 45.9911 339.362 46.0621C339.048 46.1332 338.664 46.1746 338.208 46.1864C337.403 46.2101 336.678 46.0888 336.033 45.8224C335.388 45.5502 334.876 45.13 334.497 44.5618C334.124 43.9936 333.941 43.2834 333.946 42.4311V29.0966Z" fill="#1F8505"/>
</svg>
