<svg width="50" height="50" viewBox="0 0 50 50" fill="none" xmlns="http://www.w3.org/2000/svg">
<path opacity="0.3" d="M40.1667 17.9167L38.7083 15.3958L36.0625 16.4583L33.8542 17.3542L31.9583 15.8958C31.1458 15.2708 30.2917 14.7708 29.3958 14.4167L27.1875 13.5208L26.8542 11.1667L26.4583 8.33334H23.5417L23.1458 11.1458L22.8125 13.5L20.6042 14.4167C19.75 14.7708 18.8958 15.2708 18 15.9375L16.125 17.3542L13.9375 16.4792L11.2917 15.3958L9.83333 17.9167L12.0833 19.6667L13.9375 21.125L13.6458 23.4792C13.5833 24.1042 13.5417 24.5833 13.5417 25C13.5417 25.4167 13.5833 25.8958 13.6458 26.5208L13.9375 28.875L12.0833 30.3333L9.83333 32.0833L11.2917 34.6042L13.9375 33.5417L16.1458 32.6458L18.0417 34.1042C18.8542 34.7292 19.7083 35.2292 20.6042 35.5833L22.8125 36.4792L23.1458 38.8333L23.5417 41.6667H26.4375L26.8333 38.8542L27.1667 36.5L29.375 35.6042C30.2292 35.25 31.0833 34.75 31.9792 34.0833L33.8542 32.6667L36.0208 33.5417L38.6667 34.6042L40.125 32.0833L37.875 30.3333L36.0208 28.875L36.3125 26.5208C36.3958 25.875 36.4167 25.4375 36.4167 25C36.4167 24.5625 36.375 24.1042 36.3125 23.4792L36.0208 21.125L37.875 19.6667L40.1667 17.9167ZM25 33.3333C20.3958 33.3333 16.6667 29.6042 16.6667 25C16.6667 20.3958 20.3958 16.6667 25 16.6667C29.6042 16.6667 33.3333 20.3958 33.3333 25C33.3333 29.6042 29.6042 33.3333 25 33.3333Z" fill="black"/>
<path d="M40.4792 27.0417C40.5625 26.375 40.625 25.7083 40.625 25C40.625 24.2917 40.5625 23.625 40.4792 22.9583L44.875 19.5208C45.2708 19.2083 45.375 18.6458 45.125 18.1875L40.9583 10.9792C40.8355 10.7642 40.6402 10.6 40.4073 10.516C40.1744 10.4321 39.9192 10.4338 39.6875 10.5208L34.5 12.6042C33.4167 11.7708 32.25 11.0833 30.9792 10.5625L30.1875 5.04166C30.153 4.79654 30.0303 4.57241 29.8424 4.41132C29.6544 4.25023 29.4142 4.16324 29.1667 4.16666H20.8333C20.3125 4.16666 19.875 4.54166 19.8125 5.04166L19.0208 10.5625C17.75 11.0833 16.5833 11.7917 15.5 12.6042L10.3125 10.5208C10.1917 10.4799 10.0651 10.4587 9.9375 10.4583C9.58334 10.4583 9.22917 10.6458 9.04167 10.9792L4.875 18.1875C4.60417 18.6458 4.72917 19.2083 5.125 19.5208L9.52084 22.9583C9.4375 23.625 9.375 24.3125 9.375 25C9.375 25.6875 9.4375 26.375 9.52084 27.0417L5.125 30.4792C4.72917 30.7917 4.625 31.3542 4.875 31.8125L9.04167 39.0208C9.16448 39.2358 9.35983 39.4 9.59271 39.4839C9.82559 39.5679 10.0808 39.5662 10.3125 39.4792L15.5 37.3958C16.5833 38.2292 17.75 38.9167 19.0208 39.4375L19.8125 44.9583C19.875 45.4583 20.3125 45.8333 20.8333 45.8333H29.1667C29.6875 45.8333 30.125 45.4583 30.1875 44.9583L30.9792 39.4375C32.25 38.9167 33.4167 38.2083 34.5 37.3958L39.6875 39.4792C39.8125 39.5208 39.9375 39.5417 40.0625 39.5417C40.4167 39.5417 40.7708 39.3542 40.9583 39.0208L45.125 31.8125C45.375 31.3542 45.2708 30.7917 44.875 30.4792L40.4792 27.0417ZM36.3542 23.4792C36.4375 24.125 36.4583 24.5625 36.4583 25C36.4583 25.4375 36.4167 25.8958 36.3542 26.5208L36.0625 28.875L37.9167 30.3333L40.1667 32.0833L38.7083 34.6042L36.0625 33.5417L33.8958 32.6667L32.0208 34.0833C31.125 34.75 30.2708 35.25 29.4167 35.6042L27.2083 36.5L26.875 38.8542L26.4583 41.6667H23.5417L23.1458 38.8542L22.8125 36.5L20.6042 35.6042C19.7083 35.2292 18.875 34.75 18.0417 34.125L16.1458 32.6667L13.9375 33.5625L11.2917 34.625L9.83333 32.1042L12.0833 30.3542L13.9375 28.8958L13.6458 26.5417C13.5833 25.8958 13.5417 25.4167 13.5417 25C13.5417 24.5833 13.5833 24.1042 13.6458 23.4792L13.9375 21.125L12.0833 19.6667L9.83333 17.9167L11.2917 15.3958L13.9375 16.4583L16.1042 17.3333L17.9792 15.9167C18.875 15.25 19.7292 14.75 20.5833 14.3958L22.7917 13.5L23.125 11.1458L23.5417 8.33333H26.4375L26.8333 11.1458L27.1667 13.5L29.375 14.3958C30.2708 14.7708 31.1042 15.25 31.9375 15.875L33.8333 17.3333L36.0417 16.4375L38.6875 15.375L40.1458 17.8958L37.9167 19.6667L36.0625 21.125L36.3542 23.4792ZM25 16.6667C20.3958 16.6667 16.6667 20.3958 16.6667 25C16.6667 29.6042 20.3958 33.3333 25 33.3333C29.6042 33.3333 33.3333 29.6042 33.3333 25C33.3333 20.3958 29.6042 16.6667 25 16.6667ZM25 29.1667C22.7083 29.1667 20.8333 27.2917 20.8333 25C20.8333 22.7083 22.7083 20.8333 25 20.8333C27.2917 20.8333 29.1667 22.7083 29.1667 25C29.1667 27.2917 27.2917 29.1667 25 29.1667Z" fill="black"/>
</svg>
