<svg width="31" height="31" viewBox="0 0 31 31" fill="none" xmlns="http://www.w3.org/2000/svg">
<g clip-path="url(#clip0_1_29)">
<path d="M16.6478 9.618V20.868H20.3978C20.6464 20.868 20.8849 20.9668 21.0607 21.1426C21.2365 21.3184 21.3353 21.5569 21.3353 21.8055C21.3353 22.0541 21.2365 22.2926 21.0607 22.4684C20.8849 22.6442 20.6464 22.743 20.3978 22.743H11.0228C10.7741 22.743 10.5357 22.6442 10.3599 22.4684C10.184 22.2926 10.0853 22.0541 10.0853 21.8055C10.0853 21.5569 10.184 21.3184 10.3599 21.1426C10.5357 20.9668 10.7741 20.868 11.0228 20.868H14.7728V9.618H10.0853V10.5555C10.0853 10.8041 9.98649 11.0426 9.81068 11.2184C9.63486 11.3942 9.39641 11.493 9.14777 11.493C8.89913 11.493 8.66067 11.3942 8.48485 11.2184C8.30904 11.0426 8.21027 10.8041 8.21027 10.5555V8.6805C8.21027 8.43186 8.30904 8.1934 8.48485 8.01758C8.66067 7.84177 8.89913 7.743 9.14777 7.743H22.2728C22.3975 7.74297 22.5209 7.76783 22.6359 7.81611C22.7509 7.86439 22.8551 7.93513 22.9424 8.02418C23.0297 8.11323 23.0984 8.2188 23.1444 8.33472C23.1904 8.45064 23.2128 8.57456 23.2103 8.69925L23.1709 10.5742C23.1659 10.8229 23.0624 11.0594 22.883 11.2317C22.7037 11.404 22.4633 11.498 22.2146 11.493C21.966 11.488 21.7295 11.3845 21.5572 11.2052C21.3849 11.0258 21.2909 10.7854 21.2959 10.5367L21.3146 9.618H16.6478ZM2.58527 28.368H5.39777C5.64641 28.368 5.88486 28.4668 6.06068 28.6426C6.23649 28.8184 6.33527 29.0569 6.33527 29.3055C6.33527 29.5541 6.23649 29.7926 6.06068 29.9684C5.88486 30.1442 5.64641 30.243 5.39777 30.243H1.64777C1.39913 30.243 1.16067 30.1442 0.984854 29.9684C0.809038 29.7926 0.710266 29.5541 0.710266 29.3055V25.563C0.710266 25.3144 0.809038 25.0759 0.984854 24.9001C1.16067 24.7243 1.39913 24.6255 1.64777 24.6255C1.89641 24.6255 2.13486 24.7243 2.31068 24.9001C2.48649 25.0759 2.58527 25.3144 2.58527 25.563V28.368ZM2.58527 2.118V4.92487C2.58527 5.17351 2.48649 5.41197 2.31068 5.58778C2.13486 5.7636 1.89641 5.86237 1.64777 5.86237C1.39913 5.86237 1.16067 5.7636 0.984854 5.58778C0.809038 5.41197 0.710266 5.17351 0.710266 4.92487V1.1805C0.710266 0.931856 0.809038 0.693399 0.984854 0.517584C1.16067 0.341768 1.39913 0.242996 1.64777 0.242996L5.39777 0.242996C5.64641 0.242996 5.88486 0.341768 6.06068 0.517584C6.23649 0.693399 6.33527 0.931856 6.33527 1.1805C6.33527 1.42914 6.23649 1.66759 6.06068 1.84341C5.88486 2.01922 5.64641 2.118 5.39777 2.118H2.58527ZM28.8353 2.118H26.0321C25.7835 2.118 25.545 2.01922 25.3692 1.84341C25.1934 1.66759 25.0946 1.42914 25.0946 1.1805C25.0946 0.931856 25.1934 0.693399 25.3692 0.517584C25.545 0.341768 25.7835 0.242996 26.0321 0.242996L29.7728 0.242996C30.0214 0.242996 30.2599 0.341768 30.4357 0.517584C30.6115 0.693399 30.7103 0.931856 30.7103 1.1805V4.9305C30.7103 5.17914 30.6115 5.41759 30.4357 5.59341C30.2599 5.76922 30.0214 5.868 29.7728 5.868C29.5241 5.868 29.2857 5.76922 29.1099 5.59341C28.934 5.41759 28.8353 5.17914 28.8353 4.9305V2.118ZM28.8353 28.368V25.5555C28.8353 25.3069 28.934 25.0684 29.1099 24.8926C29.2857 24.7168 29.5241 24.618 29.7728 24.618C30.0214 24.618 30.2599 24.7168 30.4357 24.8926C30.6115 25.0684 30.7103 25.3069 30.7103 25.5555V29.3055C30.7103 29.5541 30.6115 29.7926 30.4357 29.9684C30.2599 30.1442 30.0214 30.243 29.7728 30.243H26.0228C25.7741 30.243 25.5357 30.1442 25.3599 29.9684C25.184 29.7926 25.0853 29.5541 25.0853 29.3055C25.0853 29.0569 25.184 28.8184 25.3599 28.6426C25.5357 28.4668 25.7741 28.368 26.0228 28.368H28.8353ZM0.710266 12.4305C0.710266 12.1819 0.809038 11.9434 0.984854 11.7676C1.16067 11.5918 1.39913 11.493 1.64777 11.493C1.89641 11.493 2.13486 11.5918 2.31068 11.7676C2.48649 11.9434 2.58527 12.1819 2.58527 12.4305V18.0555C2.58527 18.3041 2.48649 18.5426 2.31068 18.7184C2.13486 18.8942 1.89641 18.993 1.64777 18.993C1.39913 18.993 1.16067 18.8942 0.984854 18.7184C0.809038 18.5426 0.710266 18.3041 0.710266 18.0555V12.4305ZM18.5228 0.242996C18.7714 0.242996 19.0099 0.341768 19.1857 0.517584C19.3615 0.693399 19.4603 0.931856 19.4603 1.1805C19.4603 1.42914 19.3615 1.66759 19.1857 1.84341C19.0099 2.01922 18.7714 2.118 18.5228 2.118H12.8978C12.6491 2.118 12.4107 2.01922 12.2349 1.84341C12.059 1.66759 11.9603 1.42914 11.9603 1.1805C11.9603 0.931856 12.059 0.693399 12.2349 0.517584C12.4107 0.341768 12.6491 0.242996 12.8978 0.242996L18.5228 0.242996ZM28.8353 12.4305C28.8353 12.1819 28.934 11.9434 29.1099 11.7676C29.2857 11.5918 29.5241 11.493 29.7728 11.493C30.0214 11.493 30.2599 11.5918 30.4357 11.7676C30.6115 11.9434 30.7103 12.1819 30.7103 12.4305V18.0555C30.7103 18.3041 30.6115 18.5426 30.4357 18.7184C30.2599 18.8942 30.0214 18.993 29.7728 18.993C29.5241 18.993 29.2857 18.8942 29.1099 18.7184C28.934 18.5426 28.8353 18.3041 28.8353 18.0555V12.4305ZM18.5228 28.368C18.7714 28.368 19.0099 28.4668 19.1857 28.6426C19.3615 28.8184 19.4603 29.0569 19.4603 29.3055C19.4603 29.5541 19.3615 29.7926 19.1857 29.9684C19.0099 30.1442 18.7714 30.243 18.5228 30.243H12.8978C12.6491 30.243 12.4107 30.1442 12.2349 29.9684C12.059 29.7926 11.9603 29.5541 11.9603 29.3055C11.9603 29.0569 12.059 28.8184 12.2349 28.6426C12.4107 28.4668 12.6491 28.368 12.8978 28.368H18.5228Z" fill="#1F8505"/>
</g>
<defs>
<clipPath id="clip0_1_29">
<rect width="30" height="30" fill="white" transform="translate(0.710266 0.242996)"/>
</clipPath>
</defs>
</svg>
